<svg width="378" height="84" viewBox="0 0 378 84" fill="none" xmlns="http://www.w3.org/2000/svg">
<rect width="378" height="84" rx="14" fill="#111827"/>
<path d="M70.225 35.77L69.945 44.1C69.945 46.97 70.1783 49.385 70.645 51.345C71.135 53.305 72.0333 54.6583 73.34 55.405C71.73 56.4083 70.0967 56.91 68.44 56.91C65.5233 56.91 63.7267 54.5533 63.05 49.84H55.91C55.4667 51.3567 55.245 52.5233 55.245 53.34C55.245 54.1333 55.3383 54.775 55.525 55.265C53.7983 56.3617 52.2583 56.91 50.905 56.91C48.8283 56.91 47.79 55.65 47.79 53.13C47.79 51.87 48.175 50.2833 48.945 48.37C49.7383 46.4567 50.7767 44.2633 52.06 41.79C53.3667 39.3167 54.195 37.6833 54.545 36.89C54.2883 35.63 53.9967 34.3933 53.67 33.18C54.8833 32.34 56.05 31.71 57.17 31.29C58.3133 30.8467 59.5383 30.625 60.845 30.625C62.175 30.625 63.0967 30.9167 63.61 31.5C64.94 30.9167 66.0367 30.625 66.9 30.625C67.7633 30.625 68.405 30.765 68.825 31.045C69.245 31.325 69.5483 31.7333 69.735 32.27C70.0617 33.2033 70.225 34.37 70.225 35.77ZM63.19 36.575H62.07C59.97 40.635 58.4067 43.8317 57.38 46.165H62.805C62.805 43.6217 62.9333 40.425 63.19 36.575ZM83.368 48.335C83.228 49.175 83.158 49.8167 83.158 50.26C83.158 52.5233 83.508 54.215 84.208 55.335C82.808 56.385 81.3497 56.91 79.833 56.91C78.3164 56.91 77.2314 56.4783 76.578 55.615C75.9247 54.7283 75.598 53.4217 75.598 51.695C75.598 49.945 76.333 45.01 77.803 36.89L75.948 33.145C78.5847 31.4417 80.988 30.59 83.158 30.59C83.7647 30.59 84.4297 30.7067 85.153 30.94C85.8764 31.15 86.3897 31.395 86.693 31.675C88.4197 30.9983 90.018 30.66 91.488 30.66C93.6814 30.66 95.408 31.43 96.668 32.97C97.9514 34.4867 98.593 36.33 98.593 38.5C98.593 41.1133 97.648 43.4467 95.758 45.5C94.848 46.5033 93.623 47.3083 92.083 47.915C90.543 48.5217 88.968 48.825 87.358 48.825C85.7714 48.825 84.4414 48.6617 83.368 48.335ZM84.033 44.345C84.3597 44.415 84.698 44.45 85.048 44.45C86.5414 44.45 87.8714 43.925 89.038 42.875C90.2047 41.825 90.788 40.53 90.788 38.99C90.788 37.9167 90.473 37.0067 89.843 36.26C89.2364 35.5133 88.373 35.14 87.253 35.14C86.7864 35.14 86.2497 35.2333 85.643 35.42C85.1764 38.6167 84.6397 41.5917 84.033 44.345ZM105.096 56.91C103.579 56.91 102.494 56.4783 101.841 55.615C101.188 54.7283 100.861 53.4217 100.861 51.695C100.861 49.945 101.596 45.01 103.066 36.89L101.211 33.145C103.848 31.4417 106.251 30.59 108.421 30.59C110.218 30.59 111.116 31.6867 111.116 33.88C111.116 34.6033 110.661 37.2983 109.751 41.965C108.864 46.6083 108.421 49.3733 108.421 50.26C108.421 52.5233 108.771 54.215 109.471 55.335C108.071 56.385 106.613 56.91 105.096 56.91ZM116.285 49.595C114.815 49.595 114.08 48.7433 114.08 47.04C114.08 45.8033 114.407 44.4733 115.06 43.05C115.55 43.2133 116.262 43.295 117.195 43.295C118.152 43.295 119.669 42.9217 121.745 42.175C123.845 41.4283 125.432 41.055 126.505 41.055C127.975 41.055 128.71 41.9067 128.71 43.61C128.71 44.8467 128.384 46.1767 127.73 47.6C127.24 47.4367 126.517 47.355 125.56 47.355C124.627 47.355 123.11 47.7283 121.01 48.475C118.934 49.2217 117.359 49.595 116.285 49.595ZM131.696 45.255C131.696 43.6217 132.046 41.965 132.746 40.285C133.446 38.5817 134.438 37.0067 135.721 35.56C137.005 34.1133 138.673 32.935 140.726 32.025C142.803 31.0917 144.938 30.625 147.131 30.625C149.348 30.625 151.075 31.0333 152.311 31.85C153.571 32.6667 154.201 33.7983 154.201 35.245C154.201 36.6917 153.723 37.8233 152.766 38.64C151.833 39.4333 150.76 39.83 149.546 39.83C148.333 39.83 147.236 39.5733 146.256 39.06C145.3 38.5233 144.53 37.765 143.946 36.785C142.686 37.3917 141.601 38.5817 140.691 40.355C139.781 42.1283 139.326 43.9133 139.326 45.71C139.326 47.4833 139.618 48.895 140.201 49.945C140.785 50.9717 141.613 51.485 142.686 51.485C143.76 51.485 144.705 50.9367 145.521 49.84C146.361 48.7433 146.781 47.425 146.781 45.885C149.138 45.885 150.818 46.0717 151.821 46.445C152.848 46.8183 153.361 47.6233 153.361 48.86C153.361 50.7967 152.311 52.6167 150.211 54.32C148.111 56.0233 145.475 56.875 142.301 56.875C139.128 56.875 136.561 55.895 134.601 53.935C132.665 51.975 131.696 49.0817 131.696 45.255ZM173.368 37.66C174.675 37.66 175.795 38.185 176.728 39.235C177.685 40.285 178.163 41.8133 178.163 43.82C178.163 45.8033 177.813 47.6467 177.113 49.35C176.413 51.03 175.491 52.4067 174.348 53.48C173.205 54.5533 171.91 55.3933 170.463 56C169.016 56.5833 167.535 56.875 166.018 56.875C162.961 56.875 160.546 56.035 158.773 54.355C157 52.675 156.113 50.4467 156.113 47.67C156.113 43.9133 157.315 40.8683 159.718 38.535C162.145 36.1783 165.225 35 168.958 35C169.798 35 170.638 35.0933 171.478 35.28C171.735 36.05 171.875 36.925 171.898 37.905C172.388 37.7417 172.878 37.66 173.368 37.66ZM169.063 42.525C169.063 41.8717 169.215 41.1367 169.518 40.32C169.845 39.5033 170.358 38.85 171.058 38.36C167.978 39.0133 165.855 40.2617 164.688 42.105C163.685 43.6917 163.183 45.325 163.183 47.005C163.183 48.685 163.521 50.0383 164.198 51.065C164.898 52.0683 165.785 52.57 166.858 52.57C169.238 52.57 170.918 51.0183 171.898 47.915C170.008 46.7483 169.063 44.9517 169.063 42.525ZM185.508 56.875C184.131 56.875 183.116 56.5133 182.463 55.79C181.809 55.0667 181.483 54.11 181.483 52.92C181.483 51.73 181.716 49.7933 182.183 47.11C182.673 44.4267 183.174 41.9767 183.688 39.76L181.868 36.96C184.178 35.6533 186.313 35 188.273 35C190.233 35 191.213 35.8867 191.213 37.66C191.213 38.8267 190.944 40.0167 190.408 41.23L190.758 41.405C193.254 37.135 196.428 35 200.278 35C203.101 35 204.513 36.4117 204.513 39.235C204.513 40.4483 204.163 42.5017 203.463 45.395C202.786 48.2883 202.448 50.47 202.448 51.94C202.448 53.41 202.693 54.4833 203.183 55.16C201.946 56.3033 200.639 56.875 199.263 56.875C196.579 56.875 195.238 55.4283 195.238 52.535C195.238 51.4617 195.588 49.6417 196.288 47.075C196.988 44.5083 197.338 42.84 197.338 42.07C197.338 41.02 196.941 40.495 196.148 40.495C195.494 40.495 194.748 40.7867 193.908 41.37C193.068 41.93 192.251 42.7 191.458 43.68C190.688 44.6367 190.034 45.8617 189.498 47.355C188.961 48.825 188.693 50.33 188.693 51.87C188.693 53.3867 188.938 54.4833 189.428 55.16C188.191 56.3033 186.884 56.875 185.508 56.875ZM219.171 39.655C218.308 39.9117 217.619 40.285 217.106 40.775C216.593 41.2417 216.138 41.9183 215.741 42.805C219.684 43.3883 222.461 44.2283 224.071 45.325C225.681 46.4217 226.486 47.985 226.486 50.015C226.486 51.2983 226.124 52.4183 225.401 53.375C224.678 54.3083 223.768 55.02 222.671 55.51C220.524 56.42 218.413 56.875 216.336 56.875C210.433 56.875 207.481 55.6033 207.481 53.06C207.481 51.7767 208.053 50.4933 209.196 49.21C209.779 50.0267 210.654 50.7267 211.821 51.31C213.011 51.8933 214.166 52.185 215.286 52.185C217.223 52.185 218.389 51.3333 218.786 49.63C215.239 49.21 212.673 48.4167 211.086 47.25C209.499 46.0833 208.706 44.4383 208.706 42.315C208.706 40.635 209.254 39.2233 210.351 38.08C211.471 36.9367 212.848 36.1433 214.481 35.7C216.138 35.2333 217.993 35 220.046 35C222.123 35 223.826 35.3967 225.156 36.19C226.509 36.96 227.186 37.905 227.186 39.025C227.186 40.145 226.789 41.0083 225.996 41.615C225.226 42.2217 224.374 42.525 223.441 42.525C222.531 42.525 221.691 42.28 220.921 41.79C220.174 41.3 219.591 40.5883 219.171 39.655ZM236.376 56.875C234.323 56.875 232.888 56.3733 232.071 55.37C231.255 54.3667 230.846 53.1067 230.846 51.59C230.846 50.05 231.103 47.95 231.616 45.29C232.13 42.63 232.386 40.705 232.386 39.515C232.386 38.325 232.141 37.3917 231.651 36.715C233.821 35.5717 235.653 35 237.146 35C238.103 35 238.791 35.1983 239.211 35.595C239.655 35.9683 239.876 36.5867 239.876 37.45C239.876 38.3133 239.515 40.4367 238.791 43.82C238.091 47.18 237.741 49.2567 237.741 50.05C237.741 50.8433 237.963 51.4733 238.406 51.94C238.85 52.3833 239.433 52.605 240.156 52.605C240.88 52.605 241.65 52.325 242.466 51.765C243.283 51.1817 243.948 50.365 244.461 49.315C244.788 47.425 245.43 44.4383 246.386 40.355L244.286 37.555C246.643 35.8517 248.883 35 251.006 35C252.056 35 252.803 35.1983 253.246 35.595C253.713 35.9683 253.946 36.5517 253.946 37.345C253.946 38.115 253.515 40.3433 252.651 44.03C251.811 47.7167 251.391 50.3417 251.391 51.905C251.391 53.445 251.753 54.53 252.476 55.16C251.17 56.3033 249.793 56.875 248.346 56.875C246.923 56.875 245.896 56.56 245.266 55.93C244.636 55.3 244.321 54.4717 244.321 53.445L243.971 53.27C243.201 54.39 242.128 55.2767 240.751 55.93C239.398 56.56 237.94 56.875 236.376 56.875ZM260.515 34.23L258.555 31.43C261.471 29.7267 263.77 28.875 265.45 28.875C266.406 28.875 267.083 29.0733 267.48 29.47C267.876 29.8433 268.075 30.5667 268.075 31.64C268.075 32.69 267.55 35.6767 266.5 40.6C265.473 45.5233 264.96 48.9767 264.96 50.96C264.96 52.9433 265.321 54.3433 266.045 55.16C264.411 56.3033 262.93 56.875 261.6 56.875C260.27 56.875 259.29 56.4433 258.66 55.58C258.053 54.6933 257.75 53.48 257.75 51.94C257.75 50.4 258.181 47.25 259.045 42.49C259.908 37.73 260.398 34.9767 260.515 34.23ZM271.112 43.365C270.948 42.7117 270.867 42.105 270.867 41.545C270.867 40.4017 271.205 39.5383 271.882 38.955C272.558 38.3717 273.433 38.08 274.507 38.08C274.507 36.8667 274.192 35.5483 273.562 34.125C274.705 33.285 275.743 32.655 276.677 32.235C277.633 31.7917 278.637 31.57 279.687 31.57C280.737 31.57 281.46 31.7683 281.857 32.165C282.277 32.5383 282.487 33.1217 282.487 33.915C282.487 34.7083 282.323 35.945 281.997 37.625C282.93 37.485 283.875 37.2867 284.832 37.03C284.995 37.52 285.077 38.15 285.077 38.92C285.077 39.69 284.773 40.4133 284.167 41.09C283.583 41.7433 282.72 42.07 281.577 42.07H281.052C280.212 45.8733 279.792 48.8017 279.792 50.855C279.792 52.9083 280.153 54.3433 280.877 55.16C279.57 56.3033 278.182 56.875 276.712 56.875C275.242 56.875 274.18 56.4433 273.527 55.58C272.897 54.6933 272.582 53.3283 272.582 51.485C272.582 50.365 272.99 47.425 273.807 42.665C272.873 42.8283 271.975 43.0617 271.112 43.365ZM290.627 34.23L288.667 31.43C291.584 29.7267 293.882 28.875 295.562 28.875C296.519 28.875 297.195 29.0733 297.592 29.47C297.989 29.8433 298.187 30.5667 298.187 31.64C298.187 32.69 297.662 35.6767 296.612 40.6C295.585 45.5233 295.072 48.9767 295.072 50.96C295.072 52.9433 295.434 54.3433 296.157 55.16C294.524 56.3033 293.042 56.875 291.712 56.875C290.382 56.875 289.402 56.4433 288.772 55.58C288.165 54.6933 287.862 53.48 287.862 51.94C287.862 50.4 288.294 47.25 289.157 42.49C290.02 37.73 290.51 34.9767 290.627 34.23ZM310.499 55.3C309.402 55.6967 308.306 55.895 307.209 55.895C306.112 55.895 305.191 55.5683 304.444 54.915C303.697 54.2617 303.266 53.375 303.149 52.255C303.032 51.135 302.927 49.5133 302.834 47.39C302.741 45.2433 302.647 43.7267 302.554 42.84C302.251 39.8767 301.317 37.765 299.754 36.505C300.851 35.5017 302.227 35 303.884 35C304.794 35 305.587 35.245 306.264 35.735C306.941 36.2017 307.477 36.8317 307.874 37.625C308.294 38.395 308.632 39.3983 308.889 40.635C309.286 42.6883 309.484 45.465 309.484 48.965C309.484 49.8283 309.449 50.8433 309.379 52.01H311.409C313.812 45.5233 315.014 41.1017 315.014 38.745C315.014 37.9517 314.839 37.205 314.489 36.505C316.122 35.5017 317.546 35 318.759 35C321.022 35 322.154 36.3067 322.154 38.92C322.154 40.9967 321.197 44.6483 319.284 49.875C318.934 50.8317 318.736 51.3917 318.689 51.555C315.726 60.0017 311.514 64.225 306.054 64.225C304.397 64.225 303.032 63.8633 301.959 63.14C300.886 62.44 300.349 61.5067 300.349 60.34C300.349 59.1967 300.781 57.995 301.644 56.735C302.764 58.3217 304.164 59.115 305.844 59.115C306.801 59.115 307.687 58.8 308.504 58.17C309.344 57.54 310.009 56.5833 310.499 55.3Z" fill="white"/>
</svg>
